<?xml version="1.0" encoding="utf-8"?>
<!-- Generator: Adobe Illustrator 23.0.0, SVG Export Plug-In . SVG Version: 6.00 Build 0)  -->
<svg version="1.1" id="Layer_1" xmlns="http://www.w3.org/2000/svg" xmlns:xlink="http://www.w3.org/1999/xlink" x="0px" y="0px"
	 viewBox="0 0 135 129.71" style="enable-background:new 0 0 135 129.71;" xml:space="preserve">
<style type="text/css">
	.st0{fill:#FBBF23;}
	.st1{fill:#EF8023;}
	.st2{fill:#231F20;}
</style>
<g>
	<g>
		<path class="st0" d="M67.51,101.67H34c-16.41,0-26.67-17.76-18.45-31.96L32.3,40.68l16.76-29.03c8.19-14.2,28.71-14.2,36.91,0
			l16.76,29.03l16.76,29.03c8.19,14.2-2.04,31.96-18.45,31.96H67.51z"/>
		<g>
			<g>
				<path class="st1" d="M49.87,58.87c0.6,11.61,8.08,20,19.63,20c8.85,0,13.88-3.91,16.99-9.77h7.96
					c-2.76,7.65-10.09,16.7-25.55,16.7c-18.17,0-27.02-14.11-27.02-28.6c0-16.79,10.81-28.97,26.73-28.97
					c19.95,0,26.64,15.32,26.64,28.37c0,0.78,0,1.41-0.03,2.27C95.22,58.87,49.87,58.87,49.87,58.87z M86.83,52.55
					c-0.49-7.16-4.17-17.53-18.31-17.53c-11.44,0-17.39,7.59-18.42,17.53H86.83z"/>
			</g>
		</g>
	</g>
	<g>
		<path class="st2" d="M21.3,125.12h-1.98v-12.42h-2.1v-1.81h4.11v14.23H21.3z"/>
		<path class="st2" d="M24.98,125.12v-1.67l5.6-5.69c0.89-0.92,1.29-1.7,1.29-2.62c0-1.49-1.06-2.7-2.41-2.7
			c-0.86,0-1.61,0.43-2.07,1.15c-0.34,0.55-0.46,0.95-0.46,1.81l-0.03,0.37h-1.98v-0.2c0-1.38,0.29-2.33,1.01-3.22
			c0.83-1.09,2.13-1.7,3.45-1.7c2.47,0,4.51,2.07,4.51,4.6c0,1.47-0.55,2.53-1.98,4.02l-3.97,4.08h5.98v1.81h-8.94V125.12z"/>
		<path class="st2" d="M44.29,114.46l-3.88,5.03l4.48,5.63h-2.5l-4.31-5.52v5.52H36.1v-14.26h1.98v8.71l3.85-5.14h2.36V114.46z"/>
		<path class="st2" d="M61.51,121.76c-0.8,2.21-2.79,3.62-5.12,3.62c-2.96,0-5.43-2.56-5.43-5.63c0-3.16,2.44-5.69,5.49-5.69
			c2.96,0,5.4,2.5,5.4,5.55c0,0.2-0.03,0.63-0.06,1.03h-8.82c0.43,1.78,1.81,2.93,3.54,2.93c1.26,0,2.33-0.63,3.02-1.81H61.51z
			 M59.87,119.12c-0.09-1.78-1.64-3.22-3.45-3.22c-0.98,0-1.95,0.46-2.62,1.18c-0.49,0.55-0.69,1.03-0.83,2.04H59.87z"/>
		<path class="st2" d="M71.31,125.12v-5.81c0-1.03-0.14-1.72-0.46-2.24c-0.43-0.66-1.29-1.09-2.21-1.09c-1.72,0-2.79,1.26-2.79,3.33
			v5.81h-2.04v-10.66h1.87v1.12c0.69-0.95,1.78-1.41,3.19-1.41c2.64,0,4.43,1.78,4.43,4.4v6.55
			C73.29,125.12,71.31,125.12,71.31,125.12z"/>
		<path class="st2" d="M85.71,121.76c-0.8,2.21-2.79,3.62-5.12,3.62c-2.96,0-5.43-2.56-5.43-5.63c0-3.16,2.44-5.69,5.49-5.69
			c2.96,0,5.4,2.5,5.4,5.55c0,0.2-0.03,0.63-0.06,1.03h-8.82c0.43,1.78,1.81,2.93,3.54,2.93c1.26,0,2.33-0.63,3.02-1.81H85.71z
			 M84.07,119.12c-0.09-1.78-1.64-3.22-3.45-3.22c-0.98,0-1.95,0.46-2.62,1.18c-0.49,0.55-0.69,1.03-0.83,2.04H84.07z"/>
		<path class="st2" d="M88.04,125.12v-10.66h1.87v0.95c0.55-0.78,1.58-1.24,2.76-1.24v2.04c-1.81,0.11-2.62,1.06-2.62,3.08v5.83
			H88.04z"/>
		<path class="st2" d="M104.74,123.95c0,1.47-0.46,2.7-1.38,3.65c-1.12,1.09-2.73,1.72-4.48,1.72c-1.38,0-2.53-0.37-3.54-1.21
			c-0.83-0.69-1.21-1.18-1.64-2.13h2.24c0.78,1.03,1.75,1.52,3.05,1.52c2.27,0,3.74-1.44,3.77-3.62v-0.2
			c-1.03,1.18-2.24,1.72-3.71,1.72c-3.1,0-5.69-2.59-5.69-5.66c0-1.47,0.69-3.02,1.78-4.05c1.06-1.01,2.41-1.52,3.97-1.52
			c1.61,0,2.87,0.52,3.82,1.58v-1.29h1.87v9.49H104.74z M95.31,119.78c0,2.1,1.67,3.79,3.71,3.79c2.07,0,3.74-1.72,3.74-3.91
			c0-2.1-1.61-3.71-3.74-3.71C96.95,115.98,95.31,117.71,95.31,119.78z"/>
		<path class="st2" d="M110.74,128.69h-2.07l1.55-3.79l-4.25-10.46h2.16l3.13,8.28l3.19-8.28h2.16L110.74,128.69z"/>
	</g>
</g>
</svg>
