<?xml version="1.0" encoding="utf-8"?>
<!-- Generator: Adobe Illustrator 23.0.0, SVG Export Plug-In . SVG Version: 6.00 Build 0)  -->
<svg version="1.1" id="Layer_1" xmlns="http://www.w3.org/2000/svg" xmlns:xlink="http://www.w3.org/1999/xlink" x="0px" y="0px"
	 viewBox="0 0 214.67 238.56" style="enable-background:new 0 0 214.67 238.56;" xml:space="preserve">
<style type="text/css">
	.st0{fill:#F79420;}
	.st1{clip-path:url(#XMLID_119_);}
	.st2{fill:#BCD6D1;}
	.st3{fill:#D9E5E3;}
	.st4{fill:#FFFFFF;}
	.st5{opacity:0.5;clip-path:url(#XMLID_119_);fill:url(#SVGID_3_);}
	.st6{fill:none;stroke:#FFFFFF;stroke-width:13.8112;stroke-miterlimit:10;}
	.st7{opacity:0.5;clip-path:url(#XMLID_119_);fill:url(#SVGID_4_);}
	.st8{opacity:0.5;clip-path:url(#XMLID_119_);fill:url(#SVGID_5_);}
	.st9{opacity:0.5;clip-path:url(#XMLID_119_);fill:url(#SVGID_6_);}
	.st10{opacity:0.5;clip-path:url(#XMLID_119_);fill:url(#SVGID_7_);}
	.st11{fill:none;stroke:#FFFFFF;stroke-width:3.4528;stroke-miterlimit:10;}
	.st12{opacity:0.5;clip-path:url(#XMLID_119_);fill:url(#SVGID_8_);}
	.st13{fill:none;stroke:#FFFFFF;stroke-width:9.2075;stroke-miterlimit:10;}
	.st14{opacity:0.5;clip-path:url(#XMLID_119_);fill:url(#SVGID_9_);}
	.st15{opacity:0.5;clip-path:url(#XMLID_119_);fill:url(#SVGID_10_);}
	.st16{fill:#FFFFFF;stroke:#000000;stroke-width:0.75;stroke-miterlimit:10;}
	.st17{fill:#FEF8F8;}
	.st18{display:none;fill:#FFFFFF;stroke:#000000;stroke-width:0.75;stroke-miterlimit:10;}
	.st19{opacity:0.8;fill:#20285C;}
	.st20{fill:url(#SVGID_17_);}
	.st21{fill:#FCC023;}
	.st22{fill:#F08123;}
	.st23{fill:#20285C;}
	.st24{fill:#F5DC07;}
	.st25{clip-path:url(#SVGID_19_);fill:#20285C;}
	.st26{fill:#F5DC07;stroke:#20285C;stroke-width:2;stroke-miterlimit:10;}
	.st27{fill:none;stroke:#FFFFFF;stroke-miterlimit:10;}
	.st28{fill:none;stroke:#FFFFFF;stroke-miterlimit:10;stroke-dasharray:1.9835,1.9835;}
	.st29{opacity:0.49;}
	.st30{clip-path:url(#SVGID_21_);fill:#20285C;}
	.st31{clip-path:url(#SVGID_23_);fill:#20285C;}
	.st32{opacity:0.8;}
	.st33{fill:#010101;}
	.st34{stroke:#FFFFFF;stroke-width:0.5;stroke-miterlimit:10;}
	.st35{fill:none;stroke:#ED1C24;stroke-width:3;stroke-miterlimit:10;}
	.st36{fill:#BCBEC0;}
	.st37{clip-path:url(#XMLID_120_);}
	.st38{opacity:0.5;clip-path:url(#XMLID_120_);fill:url(#SVGID_52_);}
	.st39{opacity:0.5;clip-path:url(#XMLID_120_);fill:url(#SVGID_53_);}
	.st40{opacity:0.5;clip-path:url(#XMLID_120_);fill:url(#SVGID_54_);}
	.st41{opacity:0.5;clip-path:url(#XMLID_120_);fill:url(#SVGID_55_);}
	.st42{opacity:0.5;clip-path:url(#XMLID_120_);fill:url(#SVGID_56_);}
	.st43{opacity:0.5;clip-path:url(#XMLID_120_);fill:url(#SVGID_57_);}
	.st44{opacity:0.5;clip-path:url(#XMLID_120_);fill:url(#SVGID_58_);}
	.st45{opacity:0.5;clip-path:url(#XMLID_120_);fill:url(#SVGID_59_);}
	.st46{fill:#ED1C24;}
	.st47{fill:none;stroke:#FFFEFF;stroke-width:3;stroke-miterlimit:10;}
	.st48{fill:#A29F9F;}
	.st49{fill:url(#SVGID_70_);}
	.st50{fill:url(#SVGID_73_);}
</style>
<g>
	<g>
		<path class="st21" d="M109.51,176.14H55.04c-26.66,0-43.32-28.86-29.99-51.95l27.24-47.17l27.24-47.17
			c13.33-23.09,46.66-23.09,59.99,0l27.24,47.17l27.24,47.17c13.33,23.09-3.33,51.95-29.99,51.95H109.51z"/>
		<g>
			<g>
				<path class="st22" d="M80.86,106.58c0.97,18.86,13.15,32.53,31.91,32.53c14.36,0,22.54-6.37,27.6-15.89h12.92
					c-4.47,12.45-16.39,27.13-41.55,27.13c-29.51,0-43.91-22.95-43.91-46.47c0-27.29,17.59-47.09,43.45-47.09
					c32.4,0,43.32,24.9,43.32,46.08c0,1.28,0,2.31-0.03,3.7H80.86z M140.91,96.31c-0.8-11.64-6.77-28.49-29.77-28.49
					c-18.61,0-28.25,12.31-29.94,28.49H140.91z"/>
			</g>
		</g>
	</g>
	<g>
		<path d="M34.42,214.28H31.2v-20.2h-3.44v-2.95h6.66V214.28z"/>
		<path d="M40.37,214.28v-2.71l9.13-9.27c1.46-1.49,2.08-2.78,2.08-4.27c0-2.43-1.73-4.41-3.92-4.41c-1.39,0-2.6,0.7-3.37,1.87
			c-0.56,0.9-0.73,1.56-0.76,2.95l-0.03,0.59h-3.23v-0.35c0-2.22,0.49-3.78,1.63-5.24c1.35-1.77,3.43-2.77,5.62-2.77
			c4.03,0,7.32,3.37,7.32,7.5c0,2.36-0.87,4.09-3.23,6.52l-6.45,6.63h9.72v2.95H40.37z"/>
		<path d="M71.78,196.93l-6.32,8.19l7.29,9.16h-4.06l-7.01-8.99v8.99h-3.23v-23.15h3.23v14.16l6.25-8.36H71.78z"/>
		<path d="M99.77,208.83c-1.32,3.61-4.55,5.9-8.33,5.9c-4.82,0-8.81-4.16-8.81-9.16c0-5.14,3.96-9.23,8.92-9.23
			c4.82,0,8.78,4.06,8.78,9.02c0,0.35-0.04,1.04-0.1,1.67H85.89c0.69,2.88,2.95,4.76,5.73,4.76c2.05,0,3.78-1.04,4.89-2.95H99.77z
			 M97.09,204.53c-0.14-2.88-2.67-5.24-5.59-5.24c-1.6,0-3.19,0.73-4.27,1.91c-0.8,0.9-1.11,1.67-1.35,3.33H97.09z"/>
		<path d="M115.67,214.28v-9.44c0-1.7-0.24-2.81-0.73-3.64c-0.69-1.08-2.08-1.77-3.61-1.77c-2.81,0-4.51,2.05-4.51,5.41v9.44h-3.3
			v-17.35h3.02v1.84c1.14-1.53,2.91-2.29,5.17-2.29c4.3,0,7.18,2.88,7.18,7.15v10.65H115.67z"/>
		<path d="M139.1,208.83c-1.32,3.61-4.55,5.9-8.33,5.9c-4.82,0-8.81-4.16-8.81-9.16c0-5.14,3.96-9.23,8.92-9.23
			c4.82,0,8.78,4.06,8.78,9.02c0,0.35-0.04,1.04-0.1,1.67h-14.33c0.69,2.88,2.95,4.76,5.73,4.76c2.05,0,3.78-1.04,4.89-2.95H139.1z
			 M136.43,204.53c-0.14-2.88-2.67-5.24-5.59-5.24c-1.6,0-3.19,0.73-4.27,1.91c-0.8,0.9-1.11,1.67-1.35,3.33H136.43z"/>
		<path d="M142.86,214.28v-17.35h3.02v1.56c0.87-1.25,2.57-2.01,4.48-2.01v3.33c-2.95,0.21-4.27,1.74-4.27,5v9.47H142.86z"/>
		<path d="M170,212.33c0,2.39-0.76,4.41-2.26,5.94c-1.8,1.77-4.44,2.81-7.29,2.81c-2.25,0-4.09-0.62-5.76-1.98
			c-1.35-1.11-1.98-1.91-2.67-3.47h3.64c1.28,1.7,2.85,2.5,4.96,2.5c3.68,0,6.07-2.32,6.11-5.9v-0.31c-1.7,1.91-3.64,2.81-6.04,2.81
			c-5.03,0-9.27-4.2-9.27-9.2c0-2.36,1.11-4.89,2.88-6.59c1.73-1.63,3.92-2.46,6.45-2.46c2.64,0,4.65,0.83,6.21,2.57v-2.12H170
			V212.33z M154.67,205.6c0,3.4,2.71,6.18,6,6.18c3.37,0,6.07-2.81,6.07-6.35c0-3.4-2.64-6-6.07-6
			C157.34,199.42,154.67,202.2,154.67,205.6z"/>
		<path d="M179.77,220.07h-3.37l2.53-6.14l-6.91-17h3.51l5.1,13.46l5.21-13.46h3.51L179.77,220.07z"/>
	</g>
</g>
</svg>
